# xmcd CD database file
#
# Track frame offsets:
#	150
#	14717
#	29273
#	42733
#	54480
#	65849
#	89528
#	105008
#	124447
#	137407
#	150367
#	164047
#	177727
#	191587
#	203107
#	220027
#	235147
#	254227
#	271867
#	288861
#	303119
#	317518
#	332690
#	346673
#
# Disc length: 4626 seconds
#
# Revision: 0
# Processed by: cddbd v1.5.2PL0 Copyright (c) Steve Scherf et al.
# Submitted via: CDex 1.51
#
DISCID=62121018
DTITLE=DJ FIXIE pres.  -  - Slow Jam and RNB 06-2007 CD2
DYEAR=2007
DGENRE=RNB
TTITLE0=Snoop Dogg Ft. Nate Dogg - Boss` Life (Radio Edit)[DJ Promotion CD Pool Black 43] 07erRNB90#
TTITLE1=Melissa Ft. Akhenaton - Avec Tout Mon Amour (Album Version)[DJ Promotion CD Pool Black 43] 07erRNB91.5#
TTITLE2=beyonce ft shakira - beautiful liar [Crate Savers Vol.29] 07erRNB'LT92#
TTITLE3=Ne-Yo - Put Your Hands Up [Club R and B 43] 07erRNB92#
TTITLE4=One-J - In Da Club (Radio Edit)[DJ Promotion CD Pool Black 43] 07erRNB93#
TTITLE5=Pretty Ricky - Push It Baby [X-Mix Urban Series Issue 102][AM] 07erRNB93#
TTITLE6=Jojo - Anything  [Promo Only Rhythm Radio June 2007][AM] 07erRNB93.5#
TTITLE7=Timbaland - The Way I Are [AM] 07erRNB93.93#
TTITLE8=khalil - picture this  [The Collector Series - Rare Rnb and New Jack 23][AM] 07erRNB93.92#
TTITLE9=cherish ft. da brat - unapprecia  [The Collector Series - Rare Rnb and New Jack 23][AM] 07erRNB94#
TTITLE10=Chris Brown - Wall To Wall [CP] 07erRNB94#
TTITLE11=Shy`m - Victorie (Radio Edit)[DJ Promotion CD Pool Black 43] 07erRNB95#
TTITLE12=Justin Timberlake - Summer Love  [Promo Only Rhythm Radio June 2007][AM] 07erRNB95.9#
TTITLE13=Ray-C Feat Josh Franks - Show It Off [Club R and B 45] 07erRNB97##
TTITLE14=LEMON ICE - Girl You Know It's True ( Extended Version)[PP] 07erRNB98#
TTITLE15=Lil Flip Ft Mya - Flippin (Prod. by Scott Storch) [Urban Club Cutz Vol.09][AM] 07erRNB97#
TTITLE16=Chamillionaire Ft. Kelis - Not A Criminal [DJ Promotion CD Pool Black 43] 07erRNB99#
TTITLE17=Mase - Extra Ordinary [Hot and Dirty Vol.15] 07erRNB100#
TTITLE18=Ciara - Can't Leave 'Em Alone Feat. 50 [CP] 07erRNB100.5#
TTITLE19=Jhevon Paris - Neva Eva (Remix) [Promo Only Canada Urban Radio May 2007] 07erRNB101#
TTITLE20=boxie ft. cadillac tah - i got i  [The Collector Series - Rare Rnb and New Jack 23][AM] 07erRNB100.9#
TTITLE21=Kara - Miss Words (Original) [DJs Pride Club Remix Vol.12] 07erRNB102#
TTITLE22=Jinks Feat Joey Moe - Don't Touch It [Club R and B 45] 07erRNB103#
TTITLE23=Eve - Tambourine (PO Clean Edit) [Promo Only Rhythm Radio June 2007][AM] 07erRNB102.6#
EXTD=YEAR: 2007
EXTT0=
EXTT1=
EXTT2=
EXTT3=
EXTT4=
EXTT5=
EXTT6=
EXTT7=
EXTT8=
EXTT9=
EXTT10=
EXTT11=
EXTT12=
EXTT13=
EXTT14=
EXTT15=
EXTT16=
EXTT17=
EXTT18=
EXTT19=
EXTT20=
EXTT21=
EXTT22=
EXTT23=
PLAYORDER=
